<svg id="Group_73" data-name="Group 73" xmlns="http://www.w3.org/2000/svg" width="288.029" height="125.88" viewBox="0 0 288.029 125.88">
  <circle id="Ellipse_15" data-name="Ellipse 15" cx="6.088" cy="6.088" r="6.088" transform="translate(3.44 35.313)" fill="#46b22c" opacity="0.4"/>
  <circle id="Ellipse_16" data-name="Ellipse 16" cx="8.679" cy="8.679" r="8.679" transform="translate(192.452 31.91)" fill="#46b22c" opacity="0.4"/>
  <circle id="Ellipse_17" data-name="Ellipse 17" cx="6.088" cy="6.088" r="6.088" transform="translate(178.979 38.646)" fill="#46b22c" opacity="0.4"/>
  <rect id="Rectangle_84" data-name="Rectangle 84" width="84.159" height="41.941" transform="translate(11.281 83.72)" fill="#3f3d56"/>
  <rect id="Rectangle_85" data-name="Rectangle 85" width="84.159" height="41.663" transform="translate(196.82 83.998)" fill="#3f3d56"/>
  <rect id="Rectangle_86" data-name="Rectangle 86" width="84.159" height="41.663" transform="translate(104.05 83.998)" fill="#3f3d56"/>
  <rect id="Rectangle_87" data-name="Rectangle 87" width="84.159" height="43.329" transform="translate(11.281 41.502)" fill="#7ec930" opacity="0.3"/>
  <rect id="Rectangle_88" data-name="Rectangle 88" width="84.159" height="43.329" transform="translate(104.05 41.502)" fill="#7ec930" opacity="0.3"/>
  <rect id="Rectangle_89" data-name="Rectangle 89" width="84.159" height="43.329" transform="translate(196.82 41.502)" fill="#7ec930" opacity="0.3"/>
  <rect id="Rectangle_90" data-name="Rectangle 90" width="0.439" height="28.153" transform="translate(237.913 51.97) rotate(-4.467)" fill="#3f3d56"/>
  <path id="Path_9" data-name="Path 9" d="M954.6,435.183c0,8.477-6.8,16.227-6.8,16.227a47.676,47.676,0,0,1-2.631-15.35c0-8.477,1.178-15.35,2.631-15.35S954.6,426.706,954.6,435.183Z" transform="translate(-705.282 -365.906)" fill="#46b22c"/>
  <path id="Path_10" data-name="Path 10" d="M905.674,445.046c3.253,7.828,12.5,12.376,12.5,12.376a47.676,47.676,0,0,0-3.46-15.184c-3.253-7.828-6.978-13.723-8.32-13.165S902.421,437.218,905.674,445.046Z" transform="translate(-675.631 -371.919)" fill="#46b22c"/>
  <circle id="Ellipse_18" data-name="Ellipse 18" cx="2.851" cy="2.851" r="2.851" transform="translate(235.281 49.104)" fill="#3f3d56"/>
  <circle id="Ellipse_19" data-name="Ellipse 19" cx="1.316" cy="1.316" r="1.316" transform="translate(237.912 48.884)" fill="#7ec930"/>
  <rect id="Rectangle_91" data-name="Rectangle 91" width="0.439" height="28.153" transform="translate(74.317 3.087) rotate(-4.467)" fill="#3f3d56"/>
  <path id="Path_11" data-name="Path 11" d="M365.6,259.183c0,8.477-6.8,16.227-6.8,16.227a47.674,47.674,0,0,1-2.631-15.35c0-8.477,1.178-15.35,2.631-15.35S365.6,250.706,365.6,259.183Z" transform="translate(-279.879 -238.79)" fill="#46b22c"/>
  <path id="Path_12" data-name="Path 12" d="M316.674,269.046c3.253,7.828,12.5,12.376,12.5,12.376a47.674,47.674,0,0,0-3.46-15.184c-3.253-7.828-6.978-13.722-8.32-13.165S313.421,261.218,316.674,269.046Z" transform="translate(-250.227 -244.803)" fill="#46b22c"/>
  <circle id="Ellipse_20" data-name="Ellipse 20" cx="2.851" cy="2.851" r="2.851" transform="translate(71.685 0.219)" fill="#3f3d56"/>
  <circle id="Ellipse_21" data-name="Ellipse 21" cx="1.316" cy="1.316" r="1.316" transform="translate(74.316 0)" fill="#7ec930"/>
  <rect id="Rectangle_92" data-name="Rectangle 92" width="0.439" height="28.153" transform="translate(135.284 54.054) rotate(-15.737)" fill="#3f3d56"/>
  <path id="Path_13" data-name="Path 13" d="M593.822,437.6c1.657,8.314-3.5,17.242-3.5,17.242a47.676,47.676,0,0,1-5.581-14.539c-1.657-8.314-1.844-15.284-.419-15.568S592.166,429.289,593.822,437.6Z" transform="translate(-443.974 -368.806)" fill="#46b22c"/>
  <path id="Path_14" data-name="Path 14" d="M546.673,456.916c4.72,7.042,14.681,9.694,14.681,9.694a47.673,47.673,0,0,0-6.361-14.215c-4.72-7.042-9.525-12.094-10.732-11.285S541.953,449.874,546.673,456.916Z" transform="translate(-414.974 -380.577)" fill="#46b22c"/>
  <circle id="Ellipse_22" data-name="Ellipse 22" cx="2.851" cy="2.851" r="2.851" transform="translate(132.644 51.143)" fill="#3f3d56"/>
  <circle id="Ellipse_23" data-name="Ellipse 23" cx="1.316" cy="1.316" r="1.316" transform="translate(134.912 50.743)" fill="#7ec930"/>
  <rect id="Rectangle_93" data-name="Rectangle 93" width="28.153" height="0.439" transform="translate(147.83 79.948) rotate(-64.103)" fill="#3f3d56"/>
  <path id="Path_15" data-name="Path 15" d="M625.343,452.979c-4.285,7.315-14.068,10.565-14.068,10.565a47.675,47.675,0,0,1,5.489-14.574c4.285-7.315,8.776-12.649,10.029-11.914S629.628,445.664,625.343,452.979Z" transform="translate(-464.129 -377.662)" fill="#46b22c"/>
  <path id="Path_16" data-name="Path 16" d="M594.648,436.546c-1.15,8.4,4.533,17,4.533,17a47.675,47.675,0,0,0,4.69-14.85c1.15-8.4.916-15.367-.524-15.565S595.8,428.147,594.648,436.546Z" transform="translate(-452.009 -367.649)" fill="#46b22c"/>
  <circle id="Ellipse_24" data-name="Ellipse 24" cx="2.851" cy="2.851" r="2.851" transform="translate(157.471 51.867)" fill="#3f3d56"/>
  <circle id="Ellipse_25" data-name="Ellipse 25" cx="1.316" cy="1.316" r="1.316" transform="translate(160.838 52.442)" fill="#7ec930"/>
  <path id="Path_17" data-name="Path 17" d="M362.587,349.24s-2.258-6.4-3.889-4.39,2.509,5.394,2.509,5.394Z" transform="translate(-281.431 -310.834)" fill="#a0616a"/>
  <path id="Path_18" data-name="Path 18" d="M378.479,339.089l-1.358.5s-.649,2.883-.4,3.385.376.125,0,1.129-1.505,3.638-1.631,4.014-7.275-2.383-7.275-3.763a12.769,12.769,0,0,1-2.258,2.132s8.279,6.021,9.408,6.774,1.756.376,2.76-.5,5.268-8.153,5.268-8.153Z" transform="translate(-286.661 -306.955)" fill="#575a89"/>
  <path id="Path_19" data-name="Path 19" d="M365.376,497.318s.125,1.38.376,1.505,2.132,3.261,0,3.889-3.387.376-3.889.627-9.282.753-9.408-.627,4.265-1.631,4.265-1.631,4.014-2.634,4.641-4.014S365.376,497.318,365.376,497.318Z" transform="translate(-277.195 -420.654)" fill="#2f2e41"/>
  <path id="Path_20" data-name="Path 20" d="M468.186,508.444s3.01,5.143,2.258,5.77-8.082,2.913-9.157,3.01c-1.38.125-2.383-1-1.254-1.631s3.512-3.261,3.512-4.139V509.2Z" transform="translate(-354.542 -429.271)" fill="#2f2e41"/>
  <path id="Path_21" data-name="Path 21" d="M414.932,387.412s2.634,3.261-1.505,8.53l-6.9,8.781s4.265,6.774,4.39,10.286,1,2.76,1.254,4.265,1.38.753.5,1.882-4.139,2.132-5.143,1.254a3.11,3.11,0,0,1-1-2.509c0-.5-1.756-3.387-1.882-4.265s-4.767-8.028-4.767-8.028-1.505-4.265.251-6.648a25.2,25.2,0,0,0,2.917-5.764s-5.174,6.265-8.812,7.771c0,0-1.38.251-1.129.878s0,1-.376,1.631-3.01,7.9-3.889,9.784-.5,3.01-1.505,3.638-5.519.125-5.519-.5a12.787,12.787,0,0,1,1-3.136c.376-.878,3.387-11.038,3.136-12.795s.125-4.139,2.007-5.143,11.415-9.157,11.916-9.157S414.932,387.412,414.932,387.412Z" transform="translate(-298.403 -341.856)" fill="#2f2e41"/>
  <circle id="Ellipse_26" data-name="Ellipse 26" cx="5.268" cy="5.268" r="5.268" transform="translate(86.048 15.326)" fill="#a0616a"/>
  <path id="Path_22" data-name="Path 22" d="M412.307,299.347s1.631,2.885,3.638,3.261-5.268,6.146-5.268,6.146-1.756-5.519-3.261-5.77S412.307,299.347,412.307,299.347Z" transform="translate(-316.725 -278.251)" fill="#a0616a"/>
  <path id="Path_23" data-name="Path 23" d="M407.108,317.838c0,1.631,4.892,6.272,4.892,6.272L416.641,328s.125,1.38.627,1.505,1.129.125.627.878-1.756,2.383-.627,2.634a9.22,9.22,0,0,0,1.027.1c.3.018.655.034,1.052.049.928.033,2.09.054,3.348.045q.536,0,1.091-.013c4.743-.094,10.237-.64,9.788-2.437-.753-3.01-.251-4.014-1.882-5.645s-4.265-7.275-4.265-7.275-5.268-8.906-9.659-8.906l-.912-.24a2.088,2.088,0,0,0-2.279.876,23.1,23.1,0,0,1-3.081,4.005c-1.254,1-1.45.283-1.45.283S407.108,316.207,407.108,317.838Z" transform="translate(-316.67 -284.951)" fill="#575a89"/>
  <path id="Path_24" data-name="Path 24" d="M441.792,410.444s-3.638,5.645-1.38,6.648,3.512-5.9,3.512-5.9Z" transform="translate(-340.19 -358.491)" fill="#a0616a"/>
  <path id="Path_25" data-name="Path 25" d="M399.006,278.519c-.2-.026-.266-.281-.3-.482a2.707,2.707,0,0,0-2.062-2.27,2.92,2.92,0,0,0-1.228.1,4.661,4.661,0,0,0-1.576.776,2.6,2.6,0,0,1-.788.495c-.2.058-1.037.431-1.233.494-.431.139-.788.59-1.232.5-.425-.086-.586-.6-.655-1.027a5.394,5.394,0,0,1,.957-3.246,3.443,3.443,0,0,1,1.846-1.208,13.263,13.263,0,0,1,2.56-.509,8.278,8.278,0,0,1,3.509.15,3.35,3.35,0,0,1,2.355,2.409c.044.242.052.49.105.73a10.843,10.843,0,0,0,.744,1.633,3.144,3.144,0,0,1-.1,2.549c-.313.629-.857,1.233-.739,1.926l-.968-.763a.7.7,0,0,1-.323-.823l.141-1.212a1.067,1.067,0,0,0-.063-.655C399.53,277.334,399.343,278.562,399.006,278.519Z" transform="translate(-304.246 -258.52)" fill="#2f2e41"/>
  <path id="Path_26" data-name="Path 26" d="M444.846,333.292l-1.182,4.913c1.192.043,2.768.065,4.439.033.421-1.264.824-2.583,1.133-3.817,1.129-4.516-.753-11.415-1.756-14.676a6.3,6.3,0,0,0-3.512-4.139,11.439,11.439,0,0,0-2.885,1.505C439.452,318.24,444.846,333.292,444.846,333.292Z" transform="translate(-340.986 -289.994)" opacity="0.1"/>
  <path id="Path_27" data-name="Path 27" d="M447.113,339.584l-1.231,5.115c.3.018.655.034,1.052.049.928.033,2.09.054,3.348.045.453-1.343.891-2.761,1.22-4.08,1.129-4.516-.753-11.415-1.756-14.676s-3.2.314-3.2.314.878-2.132-.753-1S447.113,339.584,447.113,339.584Z" transform="translate(-344.257 -296.537)" opacity="0.1"/>
  <path id="Path_28" data-name="Path 28" d="M442.162,314.7a6.3,6.3,0,0,1,3.512,4.139c1,3.261,2.885,10.16,1.756,14.676a84.553,84.553,0,0,1-3.512,10.16s-2.383-1.756-3.261-1.38l2.383-9.91s-5.394-15.052-3.763-16.181a11.439,11.439,0,0,1,2.885-1.505Z" transform="translate(-339.682 -289.341)" fill="#575a89"/>
  <path id="Path_29" data-name="Path 29" d="M231.374,463.243q-5.418-.918-10.42-1.576l1.318-2.556c-.445-.154-2.4,1.309-2.4,1.309L221.6,453c-2.236.27-3.373,7.846-3.373,7.846l-2.5-2.562,1.209,2.88a230.669,230.669,0,0,0-26.437-1.664l1.128-2.188c-.445-.154-2.4,1.309-2.4,1.309l1.73-7.42c-2.236.27-3.373,7.846-3.373,7.846l-2.5-2.562,1.281,3.05a148.5,148.5,0,0,0-15.2,1.032c1.141-3.408,5.019-6.65,5.019-6.65a8.677,8.677,0,0,0-5.326,3.732A59.763,59.763,0,0,1,174.326,437s-6.12,13.319-5.34,22.259l.093,1.587c-5.189.743-7.23,2.489-7.23,2.489Z" transform="translate(-139.532 -377.672)" fill="#7ec930"/>
  <path id="Path_30" data-name="Path 30" d="M899.374,471.243q-5.418-.918-10.42-1.576l1.318-2.556c-.445-.154-2.4,1.309-2.4,1.309L889.6,461c-2.236.27-3.373,7.846-3.373,7.846l-2.5-2.562,1.209,2.88a230.653,230.653,0,0,0-26.437-1.664l1.128-2.188c-.445-.154-2.4,1.31-2.4,1.31l1.73-7.42c-2.236.27-3.373,7.846-3.373,7.846l-2.5-2.562,1.281,3.05a148.5,148.5,0,0,0-15.2,1.032c1.141-3.408,5.019-6.65,5.019-6.65a8.678,8.678,0,0,0-5.326,3.732A59.764,59.764,0,0,1,842.325,445s-6.12,13.319-5.339,22.259l.093,1.587c-5.189.743-7.23,2.489-7.23,2.489Z" transform="translate(-621.993 -383.45)" fill="#7ec930"/>
  <rect id="Rectangle_94" data-name="Rectangle 94" width="288.029" height="0.556" transform="translate(0 125.325)" fill="#2f2e41"/>
</svg>
