<svg xmlns="http://www.w3.org/2000/svg" width="250" height="192.475" viewBox="0 0 250 192.475">
  <g id="Group_74" data-name="Group 74" transform="translate(0)">
    <path id="Path_31" data-name="Path 31" d="M81.382,297.537l18.969-29.83L57.869,240.694l-21.938,34.5,35.137,22.343Z" transform="translate(-24.968 -165.112)" fill="#f0f0f0"/>
    <path id="Path_32" data-name="Path 32" d="M364.486,577.458H317.5V568h46.986Zm-46.376-.61h45.766V568.61H318.11Z" transform="translate(-281.192 -435.077)" fill="#3f3d56"/>
    <ellipse id="Ellipse_27" data-name="Ellipse 27" cx="3.5" cy="3" rx="3.5" ry="3" transform="translate(75.555 134.4)" fill="#46b22c"/>
    <circle id="Ellipse_28" data-name="Ellipse 28" cx="3" cy="3" r="3" transform="translate(67.381 134.4)" fill="#46b22c"/>
    <circle id="Ellipse_29" data-name="Ellipse 29" cx="3" cy="3" r="3" transform="translate(58.192 134.4)" fill="#46b22c"/>
    <circle id="Ellipse_30" data-name="Ellipse 30" cx="3" cy="3" r="3" transform="translate(50.025 134.4)" fill="#46b22c"/>
    <circle id="Ellipse_31" data-name="Ellipse 31" cx="3" cy="3" r="3" transform="translate(40 134.4)" fill="#46b22c"/>
    <path id="Path_33" data-name="Path 33" d="M551.656,175.977V152.789H563.25V141.5H506.5v56.75h48.512V192.7a7.876,7.876,0,0,1,7.876-7.876h.362v-8.848Z" transform="translate(-410.031 -141.5)" fill="#f0f0f0"/>
    <rect id="Rectangle_95" data-name="Rectangle 95" width="38" height="8" transform="translate(167.961 149.75)" fill="#46b22c"/>
    <rect id="Rectangle_96" data-name="Rectangle 96" width="55" height="7" transform="translate(160 109.906)" fill="#f0f0f0"/>
    <rect id="Rectangle_97" data-name="Rectangle 97" width="242" height="1" transform="translate(0 191.475)" fill="#3f3d56"/>
    <path id="Path_34" data-name="Path 34" d="M742.054,427.73H672.681a8.191,8.191,0,0,1-8.181-8.181V290.681a8.191,8.191,0,0,1,8.181-8.181h69.372a8.191,8.191,0,0,1,8.181,8.181V419.549a8.19,8.19,0,0,1-8.181,8.181ZM672.681,283.11a7.58,7.58,0,0,0-7.571,7.571V419.549a7.58,7.58,0,0,0,7.571,7.571h69.372a7.58,7.58,0,0,0,7.571-7.571V290.681a7.58,7.58,0,0,0-7.571-7.571Z" transform="translate(-517.321 -235.631)" fill="#3f3d56"/>
    <path id="Path_35" data-name="Path 35" d="M773.831,294.161a1.831,1.831,0,1,1,1.831-1.831A1.831,1.831,0,0,1,773.831,294.161Zm0-3.051a1.22,1.22,0,1,0,1.22,1.22A1.22,1.22,0,0,0,773.831,291.11Z" transform="translate(-593.397 -244.093)" fill="#3f3d56"/>
    <rect id="Rectangle_98" data-name="Rectangle 98" width="13.425" height="0.61" transform="translate(185.302 47.948)" fill="#3f3d56"/>
    <path id="Path_36" data-name="Path 36" d="M871.908,311.5v24.408A24.409,24.409,0,0,1,847.5,311.5Z" transform="translate(-644.486 -258.416)" fill="#46b22c"/>
    <path id="Path_37" data-name="Path 37" d="M756.861,438.95H681.5V310.5h75.361Zm-74.751-.61h74.141V311.11H682.11Z" transform="translate(-529.134 -255.088)" fill="#3f3d56"/>
    <ellipse id="Ellipse_32" data-name="Ellipse 32" cx="8.5" cy="8" rx="8.5" ry="8" transform="translate(201 59.932)" opacity="0.1"/>
    <ellipse id="Ellipse_33" data-name="Ellipse 33" cx="8.5" cy="8" rx="8.5" ry="8" transform="translate(200 60.955)" fill="#7ec930"/>
    <rect id="Rectangle_99" data-name="Rectangle 99" width="11" height="4" transform="translate(154.227 57.806)" fill="#3f3d56"/>
    <rect id="Rectangle_100" data-name="Rectangle 100" width="12" height="4" transform="translate(160.369 99.661)" fill="#3f3d56"/>
    <path id="Path_38" data-name="Path 38" d="M769.64,494.433H713.5V486.5h56.14Zm-55.529-.61h54.919V487.11H714.11Z" transform="translate(-551.371 -378.996)" fill="#3f3d56"/>
    <rect id="Rectangle_101" data-name="Rectangle 101" width="55" height="7" transform="translate(160 133.394)" fill="#f0f0f0"/>
    <rect id="Rectangle_102" data-name="Rectangle 102" width="12" height="4" transform="translate(160.369 123.14)" fill="#3f3d56"/>
    <path id="Path_39" data-name="Path 39" d="M769.64,570.433H713.5V562.5h56.14Zm-55.529-.61h54.919V563.11H714.11Z" transform="translate(-551.371 -431.314)" fill="#3f3d56"/>
    <path id="Path_40" data-name="Path 40" d="M780.943,622.043H742.5V613.5h38.443Zm-37.833-.61h37.223V614.11H743.11Z" transform="translate(-572.505 -466.412)" fill="#3f3d56"/>
    <path id="Path_41" data-name="Path 41" d="M878.6,495.551a3.051,3.051,0,0,1-5.4,1.944l0,0a3.051,3.051,0,1,1,5.318-2.664v0h0A3.12,3.12,0,0,1,878.6,495.551Z" transform="translate(-661.856 -383.149)" fill="#46b22c"/>
    <path id="Path_42" data-name="Path 42" d="M879.992,498.33a3.051,3.051,0,0,1-5.4,1.944l0,0a3.117,3.117,0,0,1-.085-.72,3.051,3.051,0,0,1,5.4-1.944v0h0A3.12,3.12,0,0,1,879.992,498.33Z" transform="translate(-663.248 -385.918)" opacity="0.1"/>
    <circle id="Ellipse_34" data-name="Ellipse 34" cx="3" cy="3" r="3" transform="translate(212 110.915)" fill="#7ec930"/>
    <path id="Path_43" data-name="Path 43" d="M878.6,571.551a3.051,3.051,0,0,1-5.4,1.944l0,0a3.051,3.051,0,1,1,5.318-2.664v0h0a3.12,3.12,0,0,1,.085.72Z" transform="translate(-661.856 -435.472)" fill="#46b22c"/>
    <path id="Path_44" data-name="Path 44" d="M879.992,574.33a3.051,3.051,0,0,1-5.4,1.944l0,0a3.117,3.117,0,0,1-.085-.72,3.051,3.051,0,0,1,5.4-1.944v0h0a3.12,3.12,0,0,1,.085.72Z" transform="translate(-663.248 -438.244)" opacity="0.1"/>
    <ellipse id="Ellipse_35" data-name="Ellipse 35" cx="3" cy="3.5" rx="3" ry="3.5" transform="translate(212 134.415)" fill="#7ec930"/>
    <rect id="Rectangle_103" data-name="Rectangle 103" width="16" height="16" transform="translate(146.122 14.625)" fill="#f0f0f0"/>
    <path id="Path_45" data-name="Path 45" d="M861.161,210.823a3.661,3.661,0,1,1,3.661-3.661A3.661,3.661,0,0,1,861.161,210.823Zm0-6.712a3.051,3.051,0,1,0,3.051,3.051A3.051,3.051,0,0,0,861.161,204.11Z" transform="translate(-651.435 -184.583)" fill="#3f3d56"/>
    <path id="Path_46" data-name="Path 46" d="M587.433,376.433H579.5V368.5h7.933Zm-7.323-.61h6.712V369.11H580.11Z" transform="translate(-460.803 -297.765)" fill="#3f3d56"/>
    <path id="Path_47" data-name="Path 47" d="M983.433,570.433H975.5V562.5h7.933Zm-7.323-.61h6.712V563.11H976.11Z" transform="translate(-733.433 -431.314)" fill="#3f3d56"/>
    <path id="Path_48" data-name="Path 48" d="M488.5,389.613l1.361.733,4.632,2.5,7.478,4.029,4.358-8.086a6.567,6.567,0,0,0-2.668-8.906,8.723,8.723,0,0,0-10.185,1.382l0,0a8.732,8.732,0,0,0-1.64,2.158Z" transform="translate(-398.067 -304.787)" fill="#2f2e41"/>
    <path id="Path_49" data-name="Path 49" d="M341.814,540.856l-.913,10.05-3.426.457-2.284-11.42Z" transform="translate(-230.776 -371.353)" fill="#ffb8b8"/>
    <path id="Path_50" data-name="Path 50" d="M535.754,716.219s4.34-2.284,5.253-.457c0,0-.685,5.482,2.056,6.167s3.883,5.482,0,5.939-6.4-.914-7.766-.914,0-4.8,0-4.8Z" transform="translate(-429.925 -536.209)" fill="#2f2e41"/>
    <path id="Path_51" data-name="Path 51" d="M266.316,540.856l.914,10.05,3.426.457,2.284-11.42Z" transform="translate(-183.357 -371.353)" fill="#ffb8b8"/>
    <path id="Path_52" data-name="Path 52" d="M459.688,716.219s-4.34-2.284-5.253-.457c0,0,.685,5.482-2.056,6.167s-3.883,5.482,0,5.939,6.4-.914,7.766-.914,0-4.8,0-4.8Z" transform="translate(-371.542 -536.209)" fill="#2f2e41"/>
    <circle id="Ellipse_36" data-name="Ellipse 36" cx="5.939" cy="5.939" r="5.939" transform="translate(96.063 74.74)" fill="#ffb8b8"/>
    <path id="Path_53" data-name="Path 53" d="M464.067,412.355l4.8,7.538,5.71-.457,9.365.685s.884-1.768,1.606-3.488a13.513,13.513,0,0,0,.907-2.679c.228-1.6-2.969-3.2-2.969-3.2s-.126-.023-.336-.073c-.279-.066-.708-.176-1.179-.336-1.062-.361-2.339-.973-2.6-1.875-.457-1.6,2.969-3.883,2.969-3.883l-4.111-3.883s-3.652,5.073-8.088,6.229a7.058,7.058,0,0,1-.781.16l-.039.007A6.082,6.082,0,0,0,464.067,412.355Z" transform="translate(-381.221 -319.822)" fill="#ffb8b8"/>
    <path id="Path_54" data-name="Path 54" d="M454.244,432.149l-2.513,2.056s-2.056,9.822-1.37,12.563a12.974,12.974,0,0,1-.228,5.71c0,.457-2.056,17.588-2.056,17.588s-4.111,9.136.228,8.223,2.741-10.05,2.741-10.05l5.253-15.989V438.773Z" transform="translate(-369.097 -341.073)" fill="#ffb8b8"/>
    <path id="Path_55" data-name="Path 55" d="M529.363,438.138l1.827,1.37L532.1,458.7l6.852,16.446s5.025,7.994,1.827,8.223-5.253-8.223-5.253-8.223l-6.167-15.76-.914-15.3Z" transform="translate(-425.607 -345.202)" fill="#ffb8b8"/>
    <path id="Path_56" data-name="Path 56" d="M468.5,442.629s4.568,3.2,11.877,2.056c0,0,2.056,4.111.914,6.4s1.37,7.766,1.827,8.451,5.71,14.847,7.538,30.15,6.852,25.81,2.513,27.181-13.248,2.969-14.161,1.6-2.284-35.4-2.284-35.4l-2.513,13.019s3.426,22.156.914,22.613-18.273-.914-17.816-3.655,5.025-17.131,5.025-17.131-.228-28.78,4.34-34.262c0,0,1.827-2.969-.685-6.852s-2.284-10.05-2.284-10.05S465.531,446.741,468.5,442.629Z" transform="translate(-376.434 -346.903)" fill="#2f2e41"/>
    <path id="Path_57" data-name="Path 57" d="M282.913,279.781l3.844,8.458.914-.457-3.977-8.161Z" transform="translate(-194.798 -192.483)" fill="#2f2e41"/>
    <path id="Path_58" data-name="Path 58" d="M522.737,432.306l2.885,6.348.692-.062-.235-1.08-2.163-4.87C523.637,432.575,523.208,432.466,522.737,432.306Z" transform="translate(-421.762 -341.706)" fill="#2f2e41"/>
    <path id="Path_59" data-name="Path 59" d="M492.575,390.351a3.76,3.76,0,0,0,6.9.672c-2.889-3.778-.411-6.151,4.283-7.946a3.757,3.757,0,0,0-.4-4.166,8.753,8.753,0,0,0-7.161,2.357l0,0-3.335,6.185A3.742,3.742,0,0,0,492.575,390.351Z" transform="translate(-400.809 -304.828)" fill="#2f2e41"/>
    <ellipse id="Ellipse_37" data-name="Ellipse 37" cx="0.799" cy="1.37" rx="0.799" ry="1.37" transform="translate(97.609 80.024)" fill="#ffb8b8"/>
    <path id="Path_60" data-name="Path 60" d="M522.408,385.2l6.866,3.111,1.259-2.777a6.578,6.578,0,0,0-1.325-2.771l-4.726-2.14Z" transform="translate(-421.496 -306.111)" fill="#2f2e41"/>
    <circle id="Ellipse_38" data-name="Ellipse 38" cx="3" cy="3" r="3" transform="translate(114.343 135.421)" fill="#7ec930"/>
    <circle id="Ellipse_39" data-name="Ellipse 39" cx="1.994" cy="1.994" r="1.994" transform="translate(15.384 156.822)" fill="#ff6584"/>
    <rect id="Rectangle_104" data-name="Rectangle 104" width="0.61" height="22.703" transform="translate(26.842 169.209)" fill="#3f3d56"/>
    <circle id="Ellipse_40" data-name="Ellipse 40" cx="3.211" cy="3.211" r="3.211" transform="translate(23.936 165.998)" fill="#3f3d56"/>
    <path id="Path_61" data-name="Path 61" d="M265.016,709.267s-.459-9.865-9.861-8.718" transform="translate(-237.869 -526.066)" fill="#7ec930"/>
  </g>
</svg>
