<svg xmlns="http://www.w3.org/2000/svg" width="246" height="161.69" viewBox="0 0 246 161.69">
  <g id="Group_75" data-name="Group 75" transform="translate(0 0)">
    <path id="Path_62" data-name="Path 62" d="M540.508,119.4l-44.543,37.929-9.746,8.3-27.272-.166-23.275-.142-1.933-.011-4.723-5.548-18.779-22.054-9.427-11.072-2.834-3.328-2.05-2.409-4.569-5.366-7.4-8.688,7.493-6.379,7.156-6.094,5.144-4.379,64.762-55.145Z" transform="translate(-301.394 -27.353)" fill="#f2f2f2"/>
    <rect id="Rectangle_105" data-name="Rectangle 105" width="85.369" height="61.715" transform="translate(20.858 21.917)" fill="#3f3d56"/>
    <rect id="Rectangle_106" data-name="Rectangle 106" width="80.423" height="0.43" transform="translate(124.505 149.433)" fill="#3f3d56"/>
    <path id="Path_63" data-name="Path 63" d="M926.637,598.584H862.266s-1.3-19.138,6.416-19.355,6.85,8.481,16.528-3.479,21.421-11.308,22.943-4.241-2.936,12.722,5.219,10.982S933.271,585.318,926.637,598.584Z" transform="translate(-682.804 -460.548)" fill="#46b22c"/>
    <path id="Path_64" data-name="Path 64" d="M1006.4,598.178l-.217-.009c.507-12.6,3.146-20.7,5.27-25.268,2.307-4.965,4.53-6.975,4.552-6.995l.145.163c-.022.02-2.219,2.01-4.507,6.941C1009.528,577.563,1006.9,585.626,1006.4,598.178Z" transform="translate(-795.837 -460.138)" fill="#f2f2f2"/>
    <path id="Path_65" data-name="Path 65" d="M1114.778,664.3l-.209-.061a33.738,33.738,0,0,1,8.493-14.13l.146.161A33.507,33.507,0,0,0,1114.778,664.3Z" transform="translate(-880.919 -526.233)" fill="#f2f2f2"/>
    <path id="Path_66" data-name="Path 66" d="M888.883,646.9l-.215-.03a23.684,23.684,0,0,0-2.13-13.844,19.063,19.063,0,0,0-3.362-4.906l.15-.157a19.3,19.3,0,0,1,3.407,4.967A23.9,23.9,0,0,1,888.883,646.9Z" transform="translate(-699.283 -508.852)" fill="#f2f2f2"/>
    <rect id="Rectangle_107" data-name="Rectangle 107" width="236.754" height="0.43" transform="translate(9.247 138.036)" fill="#3f3d56"/>
    <rect id="Rectangle_108" data-name="Rectangle 108" width="20.363" height="25.299" transform="translate(155.843 8.475)" fill="#2f2e41"/>
    <path id="Path_67" data-name="Path 67" d="M636.4,588.213l-2.777,10.182,4.628,3.394,1.234-.925,2.16-10.49Z" transform="translate(-497.375 -461.727)" fill="#ffb8b8"/>
    <path id="Path_68" data-name="Path 68" d="M805.29,583.909l-.925,12.341h5.862V584.835Z" transform="translate(-631.398 -458.348)" fill="#ffb8b8"/>
    <path id="Path_69" data-name="Path 69" d="M722.583,220.912v7.4L734,230.168l9.873-4.011-1.851-4.628Z" transform="translate(-567.202 -173.408)" fill="#ffb8b8"/>
    <path id="Path_70" data-name="Path 70" d="M696.356,308.358l-9.873-1.851-2.468,20.054-6.17,24.991s-9.256,21.288-8.022,26.225l.617,1.543-.617,2.777,6.17,2.468,2.468-4.011s1.851,2.777,4.936-3.085S699.441,335.2,699.441,335.2l2.16,6.171a12.715,12.715,0,0,0-.309,5.862c.617,3.085,1.234,12.65,1.234,12.65s-3.394,16.66,1.234,17.895l.926,3.7,6.479.617,1.234-3.7s6.171-2.16,4.628-12.958-2.16-46.279-2.16-46.279l-6.078-14.986Z" transform="translate(-531.719 -254.683)" fill="#2f2e41"/>
    <path id="Path_71" data-name="Path 71" d="M623.124,703.17s-1.543-1.234-2.16-.926-7.1,8.639-7.1,8.639-6.788,5.245-1.851,5.862,18.512-6.171,18.512-7.713-2.852-5.406-2.852-5.406A3.468,3.468,0,0,1,623.124,703.17Z" transform="translate(-485.021 -567.119)" fill="#2f2e41"/>
    <path id="Path_72" data-name="Path 72" d="M825.617,702.2s5.553-.345,6.479.6.617,5.572.617,5.572.617,8.33-4.319,8.33-3.7-5.553-3.7-5.553Z" transform="translate(-653.267 -567.075)" fill="#2f2e41"/>
    <circle id="Ellipse_41" data-name="Ellipse 41" cx="7.713" cy="7.713" r="7.713" transform="translate(159.083 4.927)" fill="#ffb8b8"/>
    <path id="Path_73" data-name="Path 73" d="M754.351,155.06s4.319,5.245-4.319,9.256,6.171,20.671,6.171,20.671,17.277-6.479,15.735-19.129c0,0-10.49-1.851-8.022-10.49Z" transform="translate(-592.646 -137.638)" fill="#ffb8b8"/>
    <path id="Path_74" data-name="Path 74" d="M724.236,196.473s-7.1-.926-7.4,4.936,0,20.054,0,20.054-3.085,12.341-1.543,23.139c0,0-1.851,12.65,3.085,12.033s1.234-12.958,1.234-12.958l2.16-20.054-.926-14.809,4.011-8.947Z" transform="translate(-567.159 -170.104)" fill="#ffb8b8"/>
    <path id="Path_75" data-name="Path 75" d="M845.346,203.006s6.728-.129,7.036,4.808-2.16,20.054-2.16,20.054l-3.7,1.851-3.394-10.49Z" transform="translate(-667.846 -175.273)" fill="#ffb8b8"/>
    <path id="Path_76" data-name="Path 76" d="M842.089,317.794l-.617,1.543,1.851,4.628s-7.4,5.862-6.788,7.1,4.011-1.543,4.011-1.543l4.936,2.468s4.011-4.319,2.16-8.33a46.536,46.536,0,0,1-2.566-6.675S842.4,316.868,842.089,317.794Z" transform="translate(-662.643 -264.736)" fill="#ffb8b8"/>
    <path id="Path_77" data-name="Path 77" d="M742.254,191.647l-.926,10.181s-4.319,4.319.617,10.181l-.617,4.628s11.416-.617,13.575,0,8.829-.5,8.829-.5l.118-3.514a15.857,15.857,0,0,0,2.16-10.8c-.925-6.479,0-8.639,0-8.639l-2.16-.309s-1.388,9.41-10.953,10.336c0,0-11.878,1.08-8.484-11.57Z" transform="translate(-586.565 -166.357)" fill="#46b22c"/>
    <path id="Path_78" data-name="Path 78" d="M726.947,74.183s-8.022-.5-9.873,4.491a18.867,18.867,0,0,1-5.091,7.607,8.189,8.189,0,0,0-2.552,9.879s-7.938,5.335-2.693,10.073c0,0-.308,4.739,2.777,7.981,0,0,2.468,1.247,1.543,2s6.17.249,5.553-6.485a16.468,16.468,0,0,1,3.548-11.478s-4.011-8.731-2.16-11.724c1.124-1.817,1.607-3.172,2.539-3.956a11.7,11.7,0,0,0,1.44-1.406,3.324,3.324,0,0,1,3.579-1.116,4.714,4.714,0,0,1,3.394,2.993s2.005,5.362,5.4,7.856-2.622,6.859-2.622,6.859,1.046,5.139,3.762,8.181-.783,5.694-.986,6.035c-.463.778-2.311,5.693,5.323,5.715a22.481,22.481,0,0,1,4.241-5.964c2.468-2.245.617-8.729.617-8.729s3.7-2.245-.309-7.732c0,0,1.234-4.988-2.16-8.231C742.219,87.029,737.437,72.437,726.947,74.183Z" transform="translate(-559.379 -74.038)" fill="#2f2e41"/>
    <ellipse id="Ellipse_42" data-name="Ellipse 42" cx="0.771" cy="1.234" rx="0.771" ry="1.234" transform="translate(157.695 11.252)" fill="#ffb8b8"/>
    <path id="Path_79" data-name="Path 79" d="M155.7,592.836H28.4s-2.58-37.846,12.687-38.276,13.547,16.773,32.685-6.881,42.362-22.364,45.372-8.386-5.806,25.159,10.322,21.719S168.817,566.6,155.7,592.836Z" transform="translate(-28.184 -431.362)" fill="#46b22c"/>
    <path id="Path_80" data-name="Path 80" d="M313.439,592.034l-.43-.017c1-24.918,6.221-40.927,10.422-49.97,4.562-9.819,8.958-13.793,9-13.833l.286.321c-.043.039-4.388,3.974-8.913,13.726C319.627,551.266,314.437,567.21,313.439,592.034Z" transform="translate(-251.722 -430.55)" fill="#f2f2f2"/>
    <path id="Path_81" data-name="Path 81" d="M527.76,722.795l-.413-.12a66.714,66.714,0,0,1,16.8-27.944l.289.318A66.26,66.26,0,0,0,527.76,722.795Z" transform="translate(-419.97 -561.26)" fill="#f2f2f2"/>
    <path id="Path_82" data-name="Path 82" d="M81.037,688.392l-.426-.059A46.84,46.84,0,0,0,76.4,660.955a37.7,37.7,0,0,0-6.649-9.7l.3-.31a38.168,38.168,0,0,1,6.737,9.822A47.269,47.269,0,0,1,81.037,688.392Z" transform="translate(-60.771 -526.888)" fill="#f2f2f2"/>
    <rect id="Rectangle_109" data-name="Rectangle 109" width="179.984" height="0.43" transform="translate(0 161.26)" fill="#3f3d56"/>
    <path id="Path_83" data-name="Path 83" d="M224.851,171.955H124V91.962H224.851Zm-100.421-.43h99.991V92.392H124.43Z" transform="translate(-103.357 -88.108)" fill="#3f3d56"/>
    <circle id="Ellipse_43" data-name="Ellipse 43" cx="3.656" cy="3.656" r="3.656" transform="translate(25.804 33.099)" fill="#46b22c"/>
    <circle id="Ellipse_44" data-name="Ellipse 44" cx="3.656" cy="3.656" r="3.656" transform="translate(36.126 33.099)" fill="#d0cde1"/>
    <circle id="Ellipse_45" data-name="Ellipse 45" cx="3.656" cy="3.656" r="3.656" transform="translate(46.448 33.099)" fill="#46b22c" opacity="0.5"/>
    <circle id="Ellipse_46" data-name="Ellipse 46" cx="3.656" cy="3.656" r="3.656" transform="translate(56.769 33.099)" fill="#f2f2f2"/>
    <rect id="Rectangle_110" data-name="Rectangle 110" width="30.105" height="3.441" transform="translate(70.962 35.034)" fill="#f2f2f2"/>
    <circle id="Ellipse_47" data-name="Ellipse 47" cx="9.892" cy="9.892" r="9.892" transform="translate(52.038 51.162)" fill="#f2f2f2"/>
    <path id="Path_84" data-name="Path 84" d="M297.2,313.057l-4.95-4.95a.86.86,0,1,1,1.217-1.216l3.651,3.651,11.651-13.287a.86.86,0,0,1,1.293,1.134Z" transform="translate(-235.23 -249.025)" fill="#46b22c"/>
  </g>
</svg>
